<?xml version="1.0" encoding="utf-8"?>
<!-- Generator: Adobe Illustrator 21.0.0, SVG Export Plug-In . SVG Version: 6.00 Build 0)  -->
<svg version="1.1" id="Layer_1" xmlns="http://www.w3.org/2000/svg" xmlns:xlink="http://www.w3.org/1999/xlink" x="0px" y="0px"
	 viewBox="0 0 422 145" style="enable-background:new 0 0 422 145;" xml:space="preserve">
<style type="text/css">
	.st0{fill:none;stroke:#000000;stroke-miterlimit:10;}
	.st1{fill:#9EBFFF;}
	.st2{fill:#261CFF;}
	.st3{font-family:'Helvetica-Bold';}
	.st4{font-size:12px;}
</style>
<line class="st0" x1="45" y1="26.8" x2="128.5" y2="120.8"/>
<line class="st0" x1="292.1" y1="26.8" x2="375.6" y2="120.8"/>
<g>
	<line class="st0" x1="90" y1="16.5" x2="252" y2="16.5"/>
</g>
<g>
	<path class="st1" d="M13,28.8c-5.4,0-9.8-4.4-9.8-9.8v-5c0-5.4,4.4-9.8,9.8-9.8h69c5.4,0,9.8,4.4,9.8,9.8v5c0,5.4-4.4,9.8-9.8,9.8
		H13z"/>
	<path class="st2" d="M82,4.5c5.2,0,9.5,4.3,9.5,9.5v5c0,5.2-4.3,9.5-9.5,9.5H13c-5.2,0-9.5-4.3-9.5-9.5v-5c0-5.2,4.3-9.5,9.5-9.5
		H82 M82,4H13C7.5,4,3,8.5,3,14v5c0,5.5,4.5,10,10,10h69c5.5,0,10-4.5,10-10v-5C92,8.5,87.5,4,82,4L82,4z"/>
</g>
<g>
	<path class="st1" d="M259,28.8c-5.4,0-9.8-4.4-9.8-9.8v-5c0-5.4,4.4-9.8,9.8-9.8h69c5.4,0,9.8,4.4,9.8,9.8v5c0,5.4-4.4,9.8-9.8,9.8
		H259z"/>
	<path class="st2" d="M328,4.5c5.2,0,9.5,4.3,9.5,9.5v5c0,5.2-4.3,9.5-9.5,9.5h-69c-5.2,0-9.5-4.3-9.5-9.5v-5c0-5.2,4.3-9.5,9.5-9.5
		H328 M328,4h-69c-5.5,0-10,4.5-10,10v5c0,5.5,4.5,10,10,10h69c5.5,0,10-4.5,10-10v-5C338,8.5,333.5,4,328,4L328,4z"/>
</g>
<text transform="matrix(1 0 0 1 23.1538 19.5062)" class="st3 st4">butterfly</text>
<text transform="matrix(1 0 0 1 270.4619 19.5062)" class="st3 st4">papillon</text>
<text transform="matrix(1 0 0 1 125.75 10.75)" class="st3 st4">English-French</text>
<g>
	<line class="st0" x1="169" y1="130.5" x2="331" y2="130.5"/>
</g>
<g>
	<path class="st1" d="M92,142.8c-5.4,0-9.8-4.4-9.8-9.8v-5c0-5.4,4.4-9.8,9.8-9.8h69c5.4,0,9.8,4.4,9.8,9.8v5c0,5.4-4.4,9.8-9.8,9.8
		H92z"/>
	<path class="st2" d="M161,118.5c5.2,0,9.5,4.3,9.5,9.5v5c0,5.2-4.3,9.5-9.5,9.5H92c-5.2,0-9.5-4.3-9.5-9.5v-5
		c0-5.2,4.3-9.5,9.5-9.5H161 M161,118H92c-5.5,0-10,4.5-10,10v5c0,5.5,4.5,10,10,10h69c5.5,0,10-4.5,10-10v-5
		C171,122.5,166.5,118,161,118L161,118z"/>
</g>
<g>
	<path class="st1" d="M338,142.8c-5.4,0-9.8-4.4-9.8-9.8v-5c0-5.4,4.4-9.8,9.8-9.8h69c5.4,0,9.8,4.4,9.8,9.8v5
		c0,5.4-4.4,9.8-9.8,9.8H338z"/>
	<path class="st2" d="M407,118.5c5.2,0,9.5,4.3,9.5,9.5v5c0,5.2-4.3,9.5-9.5,9.5h-69c-5.2,0-9.5-4.3-9.5-9.5v-5
		c0-5.2,4.3-9.5,9.5-9.5H407 M407,118h-69c-5.5,0-10,4.5-10,10v5c0,5.5,4.5,10,10,10h69c5.5,0,10-4.5,10-10v-5
		C417,122.5,412.5,118,407,118L407,118z"/>
</g>
<text transform="matrix(1 0 0 1 97.1538 133.5062)" class="st3 st4">caterpillar</text>
<text transform="matrix(1 0 0 1 350.4619 133.5062)" class="st3 st4">chenille</text>
<text transform="matrix(1 0 0 1 204.75 124.75)" class="st3 st4">English-French</text>
<text transform="matrix(1 0 0 1 91.75 75.75)" class="st3 st4">adult-juvenile</text>
<text transform="matrix(1 0 0 1 338.25 75.75)" class="st3 st4">adult-juvenile</text>
</svg>
